{"title":"Hindi Movie - Mr India (1987) - Original VCD Rip","uid":6506771,"size":611800033,"categoryP":"video","categoryS":"movies","magnet":"?xt=urn:btih:a13572aab29c73860b9fe33345aaed6476b51a07&amp;dn=Hindi+Movie+-+Mr+India+%281987%29+-+Original+VCD+Rip&amp;tr=udp%3A%2F%2Ftracker.openbittorrent.com%3A80&amp;tr=udp%3A%2F%2Fopen.demonii.com%3A1337&amp;tr=udp%3A%2F%2Ftracker.coppersurfer.tk%3A6969&amp;tr=udp%3A%2F%2Fexodus.desync.com%3A6969","seeders":0,"leechers":1,"uploader":"Robin5555","files":4,"time":1309452447,"description":"***************************** TPB IS BENEDICTION TO ME ****************************\n*                                                                                 *\n*\t\t\t\t\t\t\t\t\t\t  *\n*\t        *                       *                       *\t          *\n*              ***                     ***                     ***                *\n*\t      *****                   *****                   *****\t\t  *\n*            *******                 *******                 *******\t\t  *\n*           *********\t\t    *********               *********             *\n*          ***********\t           ***********             *********** \t\t  *\n*         *************           *************           *************           *\n*        ***************         ***************         ***************\t  *\n*       *****************       *****************       *****************         *\n*      *******************     *******************     *******************        *\n*     *** TPB IS D BEST ***   *** TPB IS D BEST ***   *** TPB IS D BEST *** \t  *\n*      *******************     *******************     *******************\t  *\n*       *****************       *****************       *****************         *\n*        ***************         ***************         ***************          *\n*         *************           *************           *************\t \t  *\n*          ***********             ***********             ***********            *\n*           *********               *********               *********             *\n*            *******                 *******                 *******              *\n*             *****                   *****\t\t      *****               *\n*\t       ***                     ***                     ***                *\n*\t        *                       *                       *                 *\n*\t\t\t\t\t\t\t\t\t\t  *\n*\t\t\t\t\t\t\t\t\t\t  *\n***************************** TPB IS BENEDICTION TO ME ****************************\n\n\nIMDB Link :---\n &lt;a href=&quot;\nhttp://www.imdb.com/title/tt0093578/&quot; rel=&quot;nofollow&quot; target=&quot;_NEW&quot;&gt;\nhttp://www.imdb.com/title/tt0093578/&lt;/a&gt;\n\n\nScreen Link :---\n\n &lt;a href=&quot;\nhttp://www.shotpix.com/images/32656060954209582261.jpg&quot; rel=&quot;nofollow&quot; target=&quot;_NEW&quot;&gt;\nhttp://www.shotpix.com/images/32656060954209582261.jpg&lt;/a&gt;\n &lt;a href=&quot;\nhttp://www.shotpix.com/images/38086093416430664815.jpg&quot; rel=&quot;nofollow&quot; target=&quot;_NEW&quot;&gt;\nhttp://www.shotpix.com/images/38086093416430664815.jpg&lt;/a&gt;\n\n\n\nGeneral Info :---  (Disc 1) :---\n\n\nFormat                           : Matroska\nFile size                        : 284 MiB\nDuration                         : 1h 23mn\nOverall bit rate                 : 475 Kbps\n\n\nVideo ID                         : 1\nFormat                           : AVC\nFormat/Info                      : Advanced Video Codec\nFormat profile                   : &lt;a class=&quot;__cf_email__&quot; href=&quot;/cdn-cgi/l/email-protection&quot; data-cfemail=&quot;97dffef0ffd7dba3b9a7&quot;&gt;[email&amp;#160;protected]&lt;/a&gt;&lt;script cf-hash='f9e31' type=&quot;text/javascript&quot;&gt;\n/* &lt;![CDATA[ */!function(){try{var t=&quot;currentScript&quot;in document?document.currentScript:function(){for(var t=document.getElementsByTagName(&quot;script&quot;),e=t.length;e--;)if(t[e].getAttribute(&quot;cf-hash&quot;))return t[e]}();if(t&amp;&amp;t.previousSibling){var e,r,n,i,c=t.previousSibling,a=c.getAttribute(&quot;data-cfemail&quot;);if(a){for(e=&quot;&quot;,r=parseInt(a.substr(0,2),16),n=2;a.length-n;n+=2)i=parseInt(a.substr(n,2),16)^r,e+=String.fromCharCode(i);e=document.createTextNode(e),c.parentNode.replaceChild(e,c)}}}catch(u){}}();/* ]]&gt; */&lt;/script&gt;\nFormat settings, CABAC           : Yes\nFormat settings, ReFrames        : 3 frames\nCodec ID                         : V_MPEG4/ISO/AVC\nDuration                         : 1h 23mn\nBit rate mode                    : Variable\nBit rate                         : 346 Kbps\nMaximum bit rate                 : 25.0 Mbps\nWidth                            : 352 pixels\nHeight                           : 288 pixels\nDisplay aspect ratio             : 1.222\nFrame rate                       : 23.976 fps\nStandard                         : PAL\nColor space                      : YUV\nChroma subsampling               : 4:2:0\nBit depth                        : 8 bits\nScan type                        : Progressive\nBits/(Pixel*Frame)               : 0.142\nStream size                      : 202 MiB (71%)\n\nAudio ID                         : 2\nFormat                           : MPEG Audio\nFormat version                   : Version 1\nFormat profile                   : Layer 2\nCodec ID                         : A_MPEG/L2\nCodec ID/Hint                    : MP2\nDuration                         : 1h 23mn\nBit rate mode                    : Constant\nBit rate                         : 128 Kbps\nChannel(s)                       : 2 channels\nSampling rate                    : 44.1 KHz\nCompression mode                 : Lossy\nStream size                      : 76.5 MiB (27%)\n\n\nGeneral Info :---  (Disc 2) :---\n\n\nFormat                           : Matroska\nFile size                        : 299 MiB\nDuration                         : 1h 27mn\nOverall bit rate                 : 478 Kbps\n\nVideo ID                         : 1\nFormat                           : AVC\nFormat/Info                      : Advanced Video Codec\nFormat profile                   : &lt;a class=&quot;__cf_email__&quot; href=&quot;/cdn-cgi/l/email-protection&quot; data-cfemail=&quot;1850717f7058542c3628&quot;&gt;[email&amp;#160;protected]&lt;/a&gt;&lt;script cf-hash='f9e31' type=&quot;text/javascript&quot;&gt;\n/* &lt;![CDATA[ */!function(){try{var t=&quot;currentScript&quot;in document?document.currentScript:function(){for(var t=document.getElementsByTagName(&quot;script&quot;),e=t.length;e--;)if(t[e].getAttribute(&quot;cf-hash&quot;))return t[e]}();if(t&amp;&amp;t.previousSibling){var e,r,n,i,c=t.previousSibling,a=c.getAttribute(&quot;data-cfemail&quot;);if(a){for(e=&quot;&quot;,r=parseInt(a.substr(0,2),16),n=2;a.length-n;n+=2)i=parseInt(a.substr(n,2),16)^r,e+=String.fromCharCode(i);e=document.createTextNode(e),c.parentNode.replaceChild(e,c)}}}catch(u){}}();/* ]]&gt; */&lt;/script&gt;\nFormat settings, CABAC           : Yes\nFormat settings, ReFrames        : 3 frames\nCodec ID                         : V_MPEG4/ISO/AVC\nDuration                         : 1h 27mn\nBit rate mode                    : Variable\nBit rate                         : 349 Kbps\nMaximum bit rate                 : 25.0 Mbps\nWidth                            : 352 pixels\nHeight                           : 288 pixels\nDisplay aspect ratio             : 1.222\nFrame rate                       : 23.976 fps\nStandard                         : PAL\nColor space                      : YUV\nChroma subsampling               : 4:2:0\nBit depth                        : 8 bits\nScan type                        : Progressive\nBits/(Pixel*Frame)               : 0.144\nStream size                      : 213 MiB (71%)\n\nAudio ID                         : 2\nFormat                           : MPEG Audio\nFormat version                   : Version 1\nFormat profile                   : Layer 2\nCodec ID                         : A_MPEG/L2\nCodec ID/Hint                    : MP2\nDuration                         : 1h 27mn\nBit rate mode                    : Constant\nBit rate                         : 128 Kbps\nChannel(s)                       : 2 channels\nSampling rate                    : 44.1 KHz\nCompression mode                 : Lossy\nStream size                      : 80.1 MiB (27%)\n\n\n***************************** TPB IS BENEDICTION TO ME ****************************\n*                                                                                 *\n*\t\t\t\t\t\t\t\t\t\t  *\n*\t        *                       *                       *\t          *\n*              ***                     ***                     ***                *\n*\t      *****                   *****                   *****\t\t  *\n*            *******                 *******                 *******\t\t  *\n*           *********\t\t    *********               *********             *\n*          ***********\t           ***********             *********** \t\t  *\n*         *************           *************           *************           *\n*        ***************         ***************         ***************\t  *\n*       *****************       *****************       *****************         *\n*      *******************     *******************     *******************        *\n*     *** TPB IS D BEST ***   *** TPB IS D BEST ***   *** TPB IS D BEST *** \t  *\n*      *******************     *******************     *******************\t  *\n*       *****************       *****************       *****************         *\n*        ***************         ***************         ***************          *\n*         *************           *************           *************\t \t  *\n*          ***********             ***********             ***********            *\n*           *********               *********               *********             *\n*            *******                 *******                 *******              *\n*             *****                   *****\t\t      *****               *\n*\t       ***                     ***                     ***                *\n*\t        *                       *                       *                 *\n*\t\t\t\t\t\t\t\t\t\t  *\n*\t\t\t\t\t\t\t\t\t\t  *\n***************************** TPB IS BENEDICTION TO ME ****************************\n\n\n\n","torrent":{"xt":"urn:btih:a13572aab29c73860b9fe33345aaed6476b51a07","amp;dn":"Hindi+Movie+-+Mr+India+%281987%29+-+Original+VCD+Rip","amp;tr":["udp%3A%2F%2Ftracker.openbittorrent.com%3A80","udp%3A%2F%2Fopen.demonii.com%3A1337","udp%3A%2F%2Ftracker.coppersurfer.tk%3A6969","udp%3A%2F%2Fexodus.desync.com%3A6969"],"infoHash":"a13572aab29c73860b9fe33345aaed6476b51a07","infoHashBuffer":{"type":"Buffer","data":[161,53,114,170,178,156,115,134,11,159,227,51,69,170,237,100,118,181,26,7]},"announce":[],"urlList":[]}}